<?xml version="1.0" standalone="no"?><!-- Generator: Gravit.io --><svg xmlns="http://www.w3.org/2000/svg" xmlns:xlink="http://www.w3.org/1999/xlink" style="isolation:isolate" viewBox="0 0 512 512" width="512" height="512"><defs><clipPath id="_clipPath_SiFMQRtPD3ErfxDXxpsJYHCbFZZJZ1GK"><rect width="512" height="512"/></clipPath></defs><g clip-path="url(#_clipPath_SiFMQRtPD3ErfxDXxpsJYHCbFZZJZ1GK)"><path d=" M 93.965 237.583 L 93.965 376.091 C 93.965 388.326 89.392 400.118 81.143 409.154 L 58.23 434.254 C 45.105 448.632 44.079 470.319 55.789 485.871 L 55.789 485.871 C 66.731 500.404 86.026 505.848 102.951 499.178 L 117.1 493.601 C 132.321 487.602 149.045 486.481 164.904 490.5 C 185.419 495.698 218.093 502 255.931 502 C 293.769 502 326.444 495.698 346.958 490.501 C 362.818 486.483 379.541 487.603 394.762 493.602 L 408.911 499.179 C 425.836 505.849 445.131 500.405 456.073 485.872 L 456.231 485.662 C 467.87 470.203 466.935 448.667 453.999 434.276 L 431.363 409.092 C 423.271 400.09 418.795 388.413 418.795 376.309 L 418.795 237.583 C 418.795 147.884 346.079 75.168 256.38 75.168 L 256.38 75.168 C 166.68 75.168 93.965 147.884 93.965 237.583 Z " fill="rgb(0,181,173)"/><g><circle vector-effect="non-scaling-stroke" cx="361.01" cy="30" r="20" fill="rgb(0,181,173)"/><circle vector-effect="non-scaling-stroke" cx="151.01" cy="30" r="20" fill="rgb(0,181,173)"/></g><circle vector-effect="non-scaling-stroke" cx="256.01" cy="256" r="68" fill="rgb(255,255,255)"/><circle vector-effect="non-scaling-stroke" cx="256.01" cy="256" r="24" fill="rgb(254,122,119)"/><path d=" M 418.79 298 C 416.16 298 413.591 299.069 411.721 300.93 C 409.861 302.79 408.79 305.37 408.79 308 C 408.79 310.63 409.86 313.21 411.721 315.069 C 413.591 316.929 416.16 318 418.79 318 C 421.421 318 424.001 316.93 425.86 315.069 C 427.73 313.21 428.79 310.639 428.79 308 C 428.79 305.359 427.73 302.79 425.86 300.93 C 424 299.069 421.43 298 418.79 298 Z " fill="rgb(0,0,0)"/><path d=" M 461.437 427.592 L 438.799 402.406 C 432.348 395.228 428.794 385.96 428.794 376.308 L 428.794 349.215 C 428.794 343.693 424.316 339.215 418.794 339.215 C 413.272 339.215 408.794 343.693 408.794 349.215 L 408.794 376.308 C 408.794 390.905 414.168 404.921 423.925 415.776 L 446.562 440.961 C 456.276 451.769 456.983 468.038 448.226 479.668 L 448.084 479.857 C 439.876 490.759 425.276 494.88 412.577 489.875 L 398.429 484.299 C 381.095 477.468 362.449 476.259 344.502 480.808 C 324.348 485.913 292.621 492 255.931 492 C 219.241 492 187.514 485.913 167.361 480.808 C 149.415 476.261 130.767 477.467 113.433 484.299 L 99.285 489.875 C 86.588 494.88 71.986 490.759 63.779 479.857 C 54.968 468.156 55.742 451.813 65.617 440.997 L 88.528 415.896 C 98.482 404.994 103.965 390.857 103.965 376.091 L 103.965 237.583 C 103.965 153.541 172.338 85.168 256.381 85.168 C 340.422 85.168 408.795 153.541 408.795 237.583 L 408.795 268.5 C 408.795 274.022 413.273 278.5 418.795 278.5 C 424.317 278.5 428.795 274.022 428.795 268.5 L 428.795 237.583 C 428.795 186.484 406.442 140.514 371.011 108.914 L 371.011 58.28 C 382.65 54.152 391.011 43.037 391.011 30 C 391.011 13.458 377.553 0 361.011 0 C 344.469 0 331.011 13.458 331.011 30 C 331.011 43.036 339.372 54.152 351.011 58.28 L 351.011 93.533 C 323.827 75.615 291.303 65.168 256.38 65.168 C 221.141 65.168 188.343 75.803 161.011 94.02 L 161.011 58.28 C 172.65 54.152 181.011 43.037 181.011 30 C 181.011 13.458 167.553 0 151.011 0 C 134.469 0 121.011 13.458 121.011 30 C 121.011 43.036 129.372 54.152 141.011 58.28 L 141.011 109.569 C 106.006 141.148 83.965 186.838 83.965 237.583 L 83.965 376.092 C 83.965 385.856 80.34 395.203 73.758 402.412 L 50.846 427.513 C 34.489 445.431 33.208 472.504 47.801 491.887 C 61.398 509.948 85.584 516.774 106.619 508.483 L 120.767 502.907 C 134.177 497.623 148.589 496.685 162.449 500.195 C 183.706 505.58 217.179 512 255.931 512 C 294.682 512 328.157 505.58 349.414 500.194 C 363.273 496.684 377.685 497.621 391.096 502.906 L 405.244 508.482 C 426.279 516.773 450.463 509.948 464.078 491.866 L 464.219 491.677 C 478.699 472.446 477.529 445.495 461.437 427.592 Z  M 361.01 20 C 366.524 20 371.01 24.486 371.01 30 C 371.01 35.514 366.524 40 361.01 40 C 355.496 40 351.01 35.514 351.01 30 C 351.01 24.486 355.497 20 361.01 20 Z  M 151.01 20 C 156.524 20 161.01 24.486 161.01 30 C 161.01 35.514 156.524 40 151.01 40 C 145.496 40 141.01 35.514 141.01 30 C 141.01 24.486 145.497 20 151.01 20 Z " fill="rgb(0,0,0)"/><path d=" M 311.165 200.846 C 280.753 170.434 231.269 170.434 200.856 200.846 C 170.443 231.258 170.444 280.742 200.856 311.155 C 216.062 326.361 236.037 333.964 256.01 333.964 C 275.983 333.964 295.958 326.361 311.164 311.155 C 341.577 280.742 341.577 231.258 311.165 200.846 Z  M 297.022 297.012 C 274.409 319.627 237.612 319.627 214.999 297.012 C 192.385 274.398 192.385 237.603 214.999 214.989 C 226.306 203.681 241.158 198.028 256.011 198.028 C 270.864 198.028 285.716 203.681 297.023 214.989 C 319.635 237.603 319.635 274.397 297.022 297.012 Z " fill="rgb(0,0,0)"/><path d=" M 231.968 231.959 C 218.713 245.215 218.713 266.785 231.969 280.042 C 238.597 286.67 247.303 289.983 256.01 289.983 C 264.717 289.983 273.423 286.67 280.051 280.042 C 280.052 280.042 280.052 280.042 280.052 280.041 C 293.307 266.785 293.307 245.215 280.051 231.958 C 266.796 218.703 245.227 218.702 231.968 231.959 Z  M 265.911 265.899 C 260.45 271.358 251.568 271.357 246.111 265.9 C 240.653 260.441 240.653 251.558 246.11 246.1 C 248.84 243.371 252.425 242.006 256.01 242.006 C 259.595 242.006 263.181 243.37 265.909 246.099 C 271.368 251.559 271.368 260.441 265.911 265.899 Z " fill="rgb(0,0,0)"/><path d=" M 256.915 132.323 C 262.437 132.323 266.915 127.845 266.915 122.323 C 266.915 116.801 262.437 112.323 256.915 112.323 L 256.476 112.322 C 250.954 112.322 246.476 116.8 246.476 122.322 C 246.476 127.844 250.954 132.322 256.476 132.322 L 256.915 132.323 L 256.915 132.323 Z " fill="rgb(0,0,0)"/><path d=" M 344.051 171.953 C 346.028 174.201 348.789 175.349 351.565 175.349 C 353.91 175.349 356.265 174.529 358.165 172.859 C 362.312 169.212 362.718 162.893 359.071 158.746 C 343.843 141.43 324.385 128.163 302.799 120.382 C 297.601 118.507 291.873 121.202 290 126.398 C 288.127 131.594 290.82 137.324 296.016 139.197 C 314.436 145.837 331.047 157.164 344.051 171.953 Z " fill="rgb(0,0,0)"/><path d=" M 303.854 379.144 C 291.075 391.924 274.083 398.962 256.01 398.962 C 237.937 398.962 220.946 391.924 208.166 379.144 C 204.262 375.241 197.932 375.239 194.023 379.144 C 190.118 383.049 190.118 389.381 194.023 393.287 C 210.58 409.844 232.593 418.963 256.009 418.963 C 279.425 418.963 301.439 409.844 317.995 393.287 C 321.9 389.382 321.9 383.05 317.995 379.144 C 314.09 375.239 307.76 375.239 303.854 379.144 Z " fill="rgb(0,0,0)"/></g></svg>